<svg xmlns="http://www.w3.org/2000/svg" xmlns:xlink="http://www.w3.org/1999/xlink" width="319.32" height="769.095" viewBox="0 0 319.32 769.095">
  <defs>
    <linearGradient id="linear-gradient" x1="0.163" y1="0.113" x2="0.817" y2="1.132" gradientUnits="objectBoundingBox">
      <stop offset="0" stop-color="#ff0"/>
      <stop offset="1" stop-color="#1c6f80"/>
    </linearGradient>
    <linearGradient id="linear-gradient-2" x1="0.052" y1="0.672" x2="0.603" y2="0.818" gradientUnits="objectBoundingBox">
      <stop offset="0" stop-color="#583b00"/>
      <stop offset="1" stop-color="#320"/>
    </linearGradient>
    <linearGradient id="linear-gradient-3" x1="0.5" x2="1.286" y2="1.349" gradientUnits="objectBoundingBox">
      <stop offset="0" stop-color="#53d865"/>
      <stop offset="1" stop-color="#2a6c33"/>
    </linearGradient>
    <linearGradient id="linear-gradient-5" x2="0.468" y2="1.72" xlink:href="#linear-gradient-3"/>
    <linearGradient id="linear-gradient-8" y1="0.686" x2="1" y2="0.708" gradientUnits="objectBoundingBox">
      <stop offset="0" stop-color="#3369fd"/>
      <stop offset="0.502" stop-color="#264fbe"/>
      <stop offset="1" stop-color="#1a357f"/>
    </linearGradient>
  </defs>
  <g id="Group_785" data-name="Group 785" transform="translate(-1244.346 -27.904)">
    <path id="Path_419" data-name="Path 419" d="M.657.031,319.32.058c-1.675,98.722-73.262,170.31-161.57,170.31A157.75,157.75,0,0,1,0,12.619Z" transform="translate(1244.346 626.631)" fill="url(#linear-gradient)"/>
    <path id="Path_238" data-name="Path 238" d="M159.588,0c88.138,0,159.588,10.344,159.588,23.1,0,6.571-19.206,13.763-49.968,18.017a807.447,807.447,0,0,1-109.621,7.928c-44.157,0-80.8-1.982-109.895-6.207C21.113,38.691,0,29.471,0,23.1c0-2.169,2.065-4.269,6.224-6.411C24.775,7.126,86.434,0,159.588,0Z" transform="translate(1244.346 604.264)" fill="#7b5800"/>
    <path id="Path_239" data-name="Path 239" d="M145.843-3.533c80.469,0,143.907,9.572,143.907,18.474S223.138,34.162,142.669,34.162,2.1,24.533,2.1,15.631A5.083,5.083,0,0,1,4,12.625C13.17,4.563,72.133-3.533,145.843-3.533Z" transform="translate(1259.661 611.521)" fill="#000f37"/>
    <path id="Union_4" data-name="Union 4" d="M4333,9842.174c-.177-8.484,43.381-16.054,102.9-18.5l23-21.256c1.178-.934,8.974-5.41,16.579-5.42,6.927-.01,13.666,4.47,14.866,5.42l24.809,21.2c60.943,2.49,105.819,10.579,105.819,17.9,0,8.778-72.108,19.578-144.019,19.578S4333.217,9852.514,4333,9842.174Z" transform="translate(-3071.372 -9215.301)" fill="url(#linear-gradient-2)"/>
    <g id="Group_653" data-name="Group 653" transform="translate(1341.531 394.787)">
      <path id="Path_404" data-name="Path 404" d="M-12396.233-8675.586s-19.423,1.622-33.475-10.631-14.865-36.124-14.865-36.124,15.076-2.542,32.73,9.888S-12396.233-8675.586-12396.233-8675.586Z" transform="translate(12460.695 8762.208)" fill="url(#linear-gradient-3)"/>
      <path id="Path_405" data-name="Path 405" d="M-12426.263-8683.546s-10.928-3.021-17-12.716-1.187-26.131-1.187-26.131,8.015-1.371,15.641,8.467S-12426.263-8683.546-12426.263-8683.546Z" transform="translate(12508.926 8722.458)" fill="url(#linear-gradient-3)"/>
      <path id="Path_406" data-name="Path 406" d="M23.861,52.848S10.017,47.856,3.083,34.666,3.083,0,3.083,0,15.144.928,23.861,14.31,23.861,52.848,23.861,52.848Z" transform="translate(126.208 34.636) rotate(90)" fill="url(#linear-gradient-5)"/>
      <path id="Path_407" data-name="Path 407" d="M36.819,67.99S17.428,63.124,6.069,46.155,2.784,0,2.784,0,19.7,2.775,33.971,19.992,36.819,67.99,36.819,67.99Z" transform="matrix(0.07, 0.998, -0.998, 0.07, 125.237, 87.299)" fill="url(#linear-gradient-5)"/>
      <path id="Path_411" data-name="Path 411" d="M-12385.091-8674.376s-25.1,4.526-42.746-10.856-16.736-36.865-16.736-36.865,18.094-5.655,40.261,9.951S-12385.091-8674.376-12385.091-8674.376Z" transform="translate(12444.581 8836.315)" fill="url(#linear-gradient-3)"/>
      <path id="Path_416" data-name="Path 416" d="M-11426.987-8137.19v-.272c-.7-6.126-6.57-62,3.441-105.668,10.681-46.586,39.442-79.277,39.442-79.277" transform="translate(11488.703 8329.979)" fill="none" stroke="#44b153" stroke-width="3"/>
    </g>
    <g id="Group_654" data-name="Group 654" transform="translate(1261.935 37.893)" opacity="0.25">
      <path id="Path_415" data-name="Path 415" d="M141.846,3c78.339,0,141.846,60.037,141.846,138.377l1.658,313.256s-4.865,2.243-15.615,4.6-14.074,2.9-27.384,4.825c-8.283,1.132-18.476,1.543-28.193,2.5-23.07,2.279-47.463,3.282-66.959,3.162-31.847-.2-57.737-1.479-78.015-3.2-2.53-.215-20.4-1.283-37.856-4.364C12.464,458.563,2.418,453.6,2.418,453.6L0,141.377C0,63.037,63.507,3,141.846,3Z" transform="translate(0 -3)" fill="url(#linear-gradient-8)"/>
    </g>
    <g id="Group_773" data-name="Group 773" transform="translate(0 -149)">
      <path id="Path_627" data-name="Path 627" d="M-17234.088-19023.348s9.6-27.229,26.637-47.76,41.525-34.377,41.525-34.377" transform="translate(18525.113 19327.521)" fill="none" stroke="#fff" stroke-linecap="round" stroke-width="9" opacity="0.61"/>
      <path id="Path_628" data-name="Path 628" d="M0,19.084a41.664,41.664,0,0,1,6.189-11.1A39.72,39.72,0,0,1,15.837,0" transform="matrix(0.999, -0.052, 0.052, 0.999, 1324.595, 263.63)" fill="none" stroke="#fff" stroke-linecap="round" stroke-width="9" opacity="0.61"/>
    </g>
  </g>
</svg>
