<svg xmlns="http://www.w3.org/2000/svg" width="93.87" height="93.87" viewBox="0 0 133.87 133.87">
  <g id="Group_788" data-name="Group 788" transform="translate(-1646.176 -390.771)">
    <path id="Subtraction_8" data-name="Subtraction 8" d="M19,38A19,19,0,0,1,11.6,1.493,19,19,0,0,1,26.4,36.507,18.881,18.881,0,0,1,19,38ZM19,6.667A12.333,12.333,0,1,0,31.333,19,12.348,12.348,0,0,0,19,6.667Z" transform="translate(1739.065 464.66) rotate(150)" fill="gold"/>
    <path id="Subtraction_8-2" data-name="Subtraction 8" d="M19,38A19,19,0,0,1,11.6,1.493,19,19,0,0,1,26.4,36.507,18.881,18.881,0,0,1,19,38ZM19,6.667A12.333,12.333,0,1,0,31.333,19,12.348,12.348,0,0,0,19,6.667Z" transform="translate(1739.066 465.66) rotate(150)" fill="gold"/>
  </g>
</svg>
