<svg xmlns="http://www.w3.org/2000/svg" width="21.716" height="36.257" viewBox="0 0 21.716 36.257">
  <g id="Group_754" data-name="Group 754" transform="translate(-949.036 -521.52)">
    <path id="Path_596" data-name="Path 596" d="M969.25,548.359h-.044a1.5,1.5,0,0,1-1.456-1.542,5.425,5.425,0,0,0-3.077-5.042,1.5,1.5,0,0,1,1.3-2.705,8.422,8.422,0,0,1,4.78,7.833A1.5,1.5,0,0,1,969.25,548.359Z" fill="#3369fd"/>
    <path id="Path_597" data-name="Path 597" d="M950.537,548.355h-.066a1.5,1.5,0,0,1-1.434-1.552c.008-.218.257-5.35,4.754-7.692a1.5,1.5,0,0,1,1.386,2.661c-2.931,1.527-3.135,5.006-3.142,5.154A1.5,1.5,0,0,1,950.537,548.355Z" fill="#3369fd"/>
    <g id="Group_755" data-name="Group 755">
      <path id="Path_304" data-name="Path 304" d="M954.647,551.736v3.638" fill="#1e64ef"/>
      <path id="Path_598" data-name="Path 598" d="M954.647,556.873a1.5,1.5,0,0,1-1.5-1.5v-3.637a1.5,1.5,0,0,1,3,0v3.637A1.5,1.5,0,0,1,954.647,556.873Z" fill="#3369fd"/>
    </g>
    <g id="Group_756" data-name="Group 756">
      <path id="Path_306" data-name="Path 306" d="M960,552.64v3.638" fill="#1e64ef"/>
      <path id="Path_599" data-name="Path 599" d="M960,557.777a1.5,1.5,0,0,1-1.5-1.5v-3.636a1.5,1.5,0,0,1,3,0v3.636A1.5,1.5,0,0,1,960,557.777Z" fill="#3369fd"/>
    </g>
    <g id="Group_757" data-name="Group 757">
      <path id="Path_307" data-name="Path 307" d="M965.351,551.736v3.638" fill="#1e64ef"/>
      <path id="Path_600" data-name="Path 600" d="M965.351,556.873a1.5,1.5,0,0,1-1.5-1.5v-3.637a1.5,1.5,0,0,1,3,0v3.637A1.5,1.5,0,0,1,965.351,556.873Z" fill="#3369fd"/>
    </g>
    <g id="Group_758" data-name="Group 758">
      <path id="Path_305" data-name="Path 305" d="M954.646,547.928a20.423,20.423,0,0,0,5.457.9,18.046,18.046,0,0,0,5.243-.9" fill="#1e64ef"/>
      <path id="Path_601" data-name="Path 601" d="M960.136,550.328a22.055,22.055,0,0,1-5.932-.967,1.5,1.5,0,0,1,.884-2.867,18.981,18.981,0,0,0,5.057.835,16.456,16.456,0,0,0,4.732-.826,1.5,1.5,0,1,1,.937,2.85A19.548,19.548,0,0,1,960.136,550.328Z" fill="#3369fd"/>
    </g>
    <g id="Path_311" data-name="Path 311">
      <path id="Path_602" data-name="Path 602" d="M960.167,521.52c3.1,0,6.191,4.494,6.191,7.96v9.763a6.234,6.234,0,0,1-6.191,6.277h0a6.234,6.234,0,0,1-6.191-6.277h0V529.48C953.976,526.014,957.076,521.52,960.167,521.52Z" fill="none"/>
      <path id="Path_603" data-name="Path 603" d="M960.167,524.52c-.245,0-1.021.36-1.851,1.474a6.418,6.418,0,0,0-1.34,3.486v9.763a3.193,3.193,0,1,0,6.383,0V529.48a6.418,6.418,0,0,0-1.34-3.486c-.83-1.114-1.606-1.474-1.852-1.474m0-3c3.1,0,6.192,4.494,6.192,7.96v9.763a6.192,6.192,0,1,1-12.383,0V529.48C953.976,526.014,957.072,521.52,960.167,521.52Z" fill="#3369fd"/>
    </g>
    <g id="Group_759" data-name="Group 759" opacity="0.49">
      <path id="Path_309" data-name="Path 309" d="M957.068,537.039h3.34" fill="#1e64ef"/>
      <path id="Path_604" data-name="Path 604" d="M960.408,538.539h-3.34a1.5,1.5,0,0,1,0-3h3.34a1.5,1.5,0,0,1,0,3Z" fill="#3369fd"/>
    </g>
    <g id="Group_760" data-name="Group 760" opacity="0.49">
      <path id="Path_310" data-name="Path 310" d="M957.068,533.154h3.34" fill="#1e64ef"/>
      <path id="Path_605" data-name="Path 605" d="M960.408,534.654h-3.34a1.5,1.5,0,0,1,0-3h3.34a1.5,1.5,0,0,1,0,3Z" fill="#3369fd"/>
    </g>
  </g>
</svg>
